<svg xmlns="http://www.w3.org/2000/svg" viewBox="0 0 297.57 169.66"><g id="Layer_2" data-name="Layer 2"><g id="Layer_1-2" data-name="Layer 1"><path d="M0,134.54c2.28-2.2,4.21-5.29,6.93-6.33,2.51-1,5.86.28,9.13.58v8c-.43-.22-.87-.31-.91-.49-.75-3.75-1.78-7.53-6.69-7-5.22.61-4.42,5-4.47,8.52-.1,7.61-.05,15.23,0,22.85,0,3.39.07,7.2,4.61,7.43s6.33-2.87,6.46-7.09a1.39,1.39,0,0,1,.74-1.21c.64,3.5.52,6.91-3.33,8.7a8,8,0,0,1-10.26-2.33A24.58,24.58,0,0,1,0,162.38Z"/><path d="M195.09,45.94h-27.3V73.26c-15.23.46-27.7-12-27.82-27.1a27.84,27.84,0,0,1,28.9-27.79C183.61,18.83,196,31.48,195.09,45.94Z"/><path d="M167.37,83.41V92c-17-.55-30.07-7.6-38.78-21.61-10-16.05-9.94-32.75,0-48.79,8.7-14,21.8-21,38.79-21.61V8.93c-11.46.73-21.06,5-28.3,13.75A35.87,35.87,0,0,0,130.68,46C130.63,65.75,143.57,79,167.37,83.41Z"/><path d="M167.44,101.5v8.42c-29.79,2.25-64.82-25-64.35-63.46h8.8c.67,14.61,5.67,27.76,16.32,38.44S152.05,100.79,167.44,101.5Z"/><path d="M20.41,168.94V127.81c5.08.18,11.15-1.92,14.91,4.12,2.69,4.33,1.17,13.56-1.61,16.84.81,7.49,1.5,13.89,2.24,20.68-3,.75-4.58-1.36-4.91-4.73a75.81,75.81,0,0,1-.1-8.92c.07-3.92-1.8-5.33-5.67-4.67v17.81Zm4.7-39.41v19.53c4.57.82,6.87-1.06,7.15-5.31a75,75,0,0,0,0-8.87C32,130.64,29.89,128.58,25.11,129.53Z"/><path d="M238.66,148.78c.87,7.44,1.62,13.85,2.41,20.58-2.83.86-4.55-1-4.88-4.25a73.7,73.7,0,0,1-.14-8.92c0-3.67-1.34-5.71-5.65-5.12v17.79h-5V127.75c5,.35,11.12-2,14.89,4.16C243,136.23,241.45,145.61,238.66,148.78Zm-8.45.4c4.56.52,6.91-1.26,7.11-5.57a75.84,75.84,0,0,0,0-8.92c-.3-4.28-2.6-6.07-7.09-5.14Z"/><path d="M215.89,127.93h4.28c0,10.87,0,21.54,0,32.2,0,3.79-1,6.9-4.55,8.67-5.37,2.67-11-1.13-11.16-7.65-.16-8.44,0-16.88-.09-25.32,0-2.56-.26-5.11-.41-7.88h4.43c0,11.66-.15,23.28.15,34.89.05,1.85,2.13,3.64,3.27,5.46,1.35-1.39,3.84-2.75,3.88-4.17C216,152.14,215.89,140.14,215.89,127.93Z"/><path d="M183.56,148.35c0-4-.24-8,.06-11.91.42-5.35,3.53-8.54,7.86-8.69s7.81,2.88,8.12,8.24c.47,8.24.58,16.54.23,24.79-.24,5.66-3.74,8.71-8.38,8.57s-7.6-3.43-7.93-9.08c-.23-4-.05-8-.05-11.92Zm3.74.13c0,4.78-.06,9.56,0,14.34,0,2.92,1.26,5.77,4.46,5.19,1.7-.31,4.1-3.13,4.18-4.9.42-9.54.42-19.13,0-28.67-.08-1.76-2.44-4.51-4.17-4.89-3.33-.73-4.42,2.2-4.49,5.08C187.21,139.24,187.29,143.86,187.3,148.48Z"/><path d="M71.72,127.78Q75.26,148.42,78.8,169H72.94V159.4H64.79c-.32,2.91-.65,6-1,9.59l-2.59.18q4.08-20.73,8.14-41.43Zm-6.49,29.35h7l-2.78-17.54H68.28C67.28,145.32,66.29,151.05,65.23,157.13Z"/><path d="M110.47,128h5.75c1.49,10.26,2.93,20.24,4.38,30.21l1.14,0L126.8,128h2.89c0,.31.18.65.07.88-.71,1.59-1.85,3.07-2.17,4.73-2.07,10.54-3.91,21.13-6,31.67-.27,1.36-1.44,2.54-2.19,3.8-.62-1.2-1.58-2.34-1.8-3.6-1.75-10.28-3.31-20.58-5.07-30.86A51.88,51.88,0,0,0,110.47,128Z"/><path d="M56.66,162.31V169h-15V128H56.61v6c-.94-1.61-1.26-3-2-3.26a22.06,22.06,0,0,0-6.83-1.55c-.53,0-1.58,2.5-1.64,3.89-.21,4.6-.08,9.23-.08,14.9l7.21-1.59v4.49l-6.87-2.06v18.38C50.82,168.52,54.42,168.32,56.66,162.31Z"/><path d="M264.58,128H279.4v5.2c-1.93-5.3-5.86-4.51-10.11-3.88v18.65l6.83-1.33c.05,1,.14,2.64.22,4.33l-7-2.12v18.34c6.48,1.26,7.14,1,10.06-4V169h-14.8Z"/><path d="M138.73,149v18.4c3.94.31,8.17,2.32,10.33-3.67.08,1.61.17,3.21.27,5.21H134.15v-41H149v5.2c-2-4.64-5.54-5-10.08-3.64v18.38l6.73-1.35c.08,1.09.19,2.68.31,4.35Z"/><path d="M246.47,168.64v-9l.68-.08c.33,1.54.17,3.52,1.09,4.53,1.56,1.74,3.83,4,5.74,4,3.27-.09,4.77-3.32,3.77-6.27-1.14-3.36-3.43-6.32-5-9.56-2.36-4.81-5.68-9.53-6.52-14.62-1.34-8.07,2.72-10.94,10.77-9.15a11.44,11.44,0,0,0,3-.17v8.59l-.71.14c-.35-1.35-.65-2.71-1.06-4-.85-2.8-2.38-5-5.69-4.14s-4.57,3.5-3.79,6.53a27.08,27.08,0,0,0,3.44,7.05c2.31,3.81,5.33,7.28,7.1,11.31a17.29,17.29,0,0,1,1.08,9.54c-1,5.36-4.47,6.92-10.06,5.63A24.39,24.39,0,0,0,246.47,168.64Z"/><path d="M283.47,168.64v-9l.68-.08c.33,1.54.17,3.52,1.09,4.53,1.56,1.74,3.83,4,5.74,4,3.27-.09,4.77-3.32,3.77-6.27-1.14-3.36-3.43-6.32-5-9.56-2.36-4.81-5.68-9.53-6.52-14.62-1.34-8.07,2.72-10.94,10.77-9.15a11.44,11.44,0,0,0,3-.17v8.59l-.71.14c-.35-1.35-.65-2.71-1.06-4-.85-2.8-2.38-5-5.69-4.14s-4.57,3.5-3.79,6.53a27.08,27.08,0,0,0,3.44,7.05c2.31,3.81,5.33,7.28,7.1,11.31a17.29,17.29,0,0,1,1.08,9.54c-1,5.36-4.47,6.92-10.06,5.63A24.39,24.39,0,0,0,283.47,168.64Z"/><path d="M98.42,128v6.11c-1.16-1.91-1.64-3.3-2.61-4.09s-2.31-.81-3.8-1.27v40.19H87.13V128.16L81,132.33V128Z"/><path d="M179,159.37c1,5.65-.62,8.93-4.76,9.86-4.6,1-9.59-1.27-9.88-5.91a229.34,229.34,0,0,1,.08-29.66c.31-4.59,5.32-6.7,10-5.55,1.61.4,3.29.51,5.06.77v7.83c-.43-.23-.87-.31-.91-.49-.83-3.73-1.87-7.47-6.8-6.85s-4.34,4.71-4.37,8.13c-.07,7.62-.06,15.24,0,22.86,0,3.51-.17,7.61,4.74,7.79,4.57.18,6.2-3.09,6.37-7.24A6.07,6.07,0,0,1,179,159.37Z"/><path d="M106.69,169.05h-5V127.9h5Z"/></g></g></svg>